<svg width="55" height="55" viewBox="0 0 55 55" fill="none" xmlns="http://www.w3.org/2000/svg">
<path d="M30.1673 14.1576H24.834V24.8242H14.1673V30.1576H24.834V40.8242H30.1673V30.1576H40.834V24.8242H30.1673V14.1576ZM27.5007 0.824219C12.7807 0.824219 0.833984 12.7709 0.833984 27.4909C0.833984 42.2109 12.7807 54.1576 27.5007 54.1576C42.2207 54.1576 54.1673 42.2109 54.1673 27.4909C54.1673 12.7709 42.2207 0.824219 27.5007 0.824219ZM27.5007 48.8242C15.7407 48.8242 6.16732 39.2509 6.16732 27.4909C6.16732 15.7309 15.7407 6.15755 27.5007 6.15755C39.2607 6.15755 48.834 15.7309 48.834 27.4909C48.834 39.2509 39.2607 48.8242 27.5007 48.8242Z" fill="#353535"/>
</svg>
